<?xml version="1.0" encoding="utf-8"?>
<svg version="1.1" id="Layer_1" xmlns="http://www.w3.org/2000/svg" xmlns:xlink="http://www.w3.org/1999/xlink" x="0px" y="0px"
	 viewBox="0 0 1000 200" style="enable-background:new 0 0 1000 200;" xml:space="preserve">
<style type="text/css">
	.st0{fill:#2295D3;}
	.st1{fill:#2A7BB7;}
	.st2{fill:#1E4A84;}
	.st3{fill:#72BDE5;}
	.st4{fill:#000000;}
</style>
<path class="st0" d="M0,125.1c0-1.6,0-3,0-4.7c0.2-5.3,1.4-10.3,3.9-15c2.4-4.7,5.7-8.9,9.9-12.4c5.3-4.5,11.6-7.3,18.4-8.3
	c2.6-0.6,5.5-0.6,8.1-0.4c0.8,0,1-0.2,1-0.8c0-1.6,0-3,0-4.7c0-5.3,1.2-10.7,3.4-15.6C49.9,51.9,60,43.8,72,41.3
	c4.1-0.8,8.3-1,12.4-0.4c1,0,2,0.2,3,0.4c0.6,0,0.6-0.2,0.8-0.6c1.4-6.3,3.9-12.4,7.5-17.6c2.4-3.9,5.5-7.1,8.9-10.1
	c5.3-4.7,11.6-8.1,18.2-10.3c3.2-1,6.7-1.8,10.1-2.2c1.2-0.4,2.8-0.4,4.7-0.4c22.9-0.2,43.2,14.8,49.7,36.7c0.2,0.4,0.2,0.8,0.2,1.2
	c-0.2,0.2-0.2,0.2,0,0.4c-1,1.6-2.2,3.2-3.4,4.7c-2,2.8-4.3,5.5-6.5,8.3s-4.5,5.5-6.7,8.3c-2.6,3.2-5.3,6.3-7.9,9.5
	c-1.6,2-3.4,4.1-5.3,6.1c-6.9,7.7-14,15.2-21.5,22.3c-3.9,3.9-8.1,7.5-12.2,10.9c-5.1,4.3-10.5,8.3-16,12c-4.9,3.2-9.9,6.3-15.2,9.3
	c-9.7,5.7-19.9,10.7-30.2,15.8c-7.1,3.4-14.2,6.9-21.5,9.9c-3.9,1.6-7.5,3.2-11.1,5.1c-0.6,0.2-1.2,0.2-1.8,0
	c-5.5-1.6-10.7-4.3-15.2-8.1C6.5,146.7,2,139.2,0.4,130.7C0.2,128.5,0,126.9,0,125.1z"/>
<path class="st1" d="M85.9,160.7c3-2,6.1-4.1,9.1-6.3c5.5-3.9,10.9-7.7,16-11.8c4.1-3.2,8.1-6.5,12-10.1c3.2-2.8,6.3-5.9,9.1-9.1
	c4.5-4.9,8.7-10.1,12.8-15.4c4.1-5.3,7.9-10.5,11.6-16c6.7-9.7,13-19.9,19.1-30.2c3.6-6.1,7.1-12.2,10.5-18.4c0.6-1,1.2-2,1.6-3
	c0.2-0.6,0.8-0.8,1.4-0.8c5.3-0.2,10.3,0.4,15.2,2c4.7,1.6,8.9,4.3,12.8,7.3c4.1,3.4,7.3,7.7,9.5,12.6c1.6,3.4,2.6,7.1,3.2,10.7
	c0.2,2,0.4,4.1,0.4,6.1c0.2,2.8-0.8,5.5-2.6,7.5c-4.3,5.1-8.3,10.5-12.6,15.8c-3,3.6-6.1,7.1-9.1,10.7c-3,3.6-6.1,7.1-9.1,10.5
	c-2.2,2.4-4.5,4.7-6.7,7.1c-3,3.4-6.3,6.7-9.7,9.7c-4.1,4.1-8.3,7.9-12.8,11.6c-3.9,3.2-7.7,6.3-11.8,9.1c-0.4,0.4-1,0.6-1.4,0.4
	L85.9,160.7L85.9,160.7z"/>
<path class="st2" d="M227.2,161.1h-0.8h-1.6h-43.2v-0.6c3.9-4.7,7.7-9.5,11.4-14.6c4.9-6.7,9.5-13.6,14-20.5
	c3.4-5.3,6.7-10.5,9.9-15.8c2.2-3.9,4.5-7.5,6.7-11.4c2.6-4.5,5.1-8.9,7.5-13.6c0.4-0.6,0.8-0.4,1.2-0.4c1.8,0.2,3.9,0.6,5.7,1
	c5.1,1.2,9.7,3.6,13.8,6.7c4.1,3,7.3,6.9,9.9,11.4c2,3.4,3.4,7.1,4.3,11.1c0.8,3.6,1,7.3,0.8,11.1c-0.4,5.3-1.8,10.3-4.3,15
	c-3.9,7.1-9.7,13-16.8,16.4c-4.1,2-8.3,3.2-12.6,3.6C230.9,161.1,229,160.9,227.2,161.1z"/>
<path class="st3" d="M187.5,38.3c-0.2-0.2-0.2-0.2,0-0.4C187.9,38.1,187.9,38.1,187.5,38.3z"/>
<path class="st4" d="M369.8,56.8c6.4,0,12.3,1.2,17.5,3.6c5.2,2.4,9.7,5.8,13.5,10c3.7,4.3,6.6,9.2,8.7,14.8c2,5.6,3,11.7,3,18.1v54.5h-23.6
	v-54.5c0-6.6-2.3-12-6.9-16.3c-4.5-4.5-9.8-6.7-16.1-6.7c-6.4,0-11.9,2.2-16.3,6.7c-4.5,4.5-6.7,9.9-6.7,16.3v54.5h-23.6V59.6h23.6
	V67c3.5-3,7.5-5.5,12-7.4C359.3,57.8,364.3,56.8,369.8,56.8z"/>
<path class="st4" d="M506.9,120.5h-51.5c1.3,3,3.2,5.7,5.7,8.1c2.8,2.8,5.8,4.8,9.2,6.2c3.4,1.4,7,2.1,10.8,2.1c5.4,0,10.2-1.2,14.4-3.7
	l24.6,9.8c-4.7,5.5-10.4,9.8-17.1,12.9c-6.7,3.1-14,4.6-21.8,4.6c-7.2,0-14-1.3-20.3-4c-6.3-2.7-11.8-6.4-16.5-11.1
	c-4.7-4.7-8.4-10.2-11.1-16.5c-2.7-6.3-4-13-4-20.1c0-7.2,1.3-14,4-20.3c2.7-6.3,6.4-11.8,11.1-16.5c4.7-4.7,10.2-8.4,16.5-11.1
	c6.3-2.7,13-4,20.3-4c7.2,0,14,1.3,20.3,4c6.3,2.7,11.8,6.4,16.5,11.1c4.7,4.7,8.4,10.2,11.1,16.5c2.7,6.3,4,13,4,20.3
	c0,4.2-0.5,8.1-1.4,11.8L506.9,120.5L506.9,120.5z M481.2,80.4c-7.6,0-14.3,2.8-20.1,8.3c-2.5,2.5-4.4,5.2-5.7,8.3h51.5
	c-1.3-3-3.2-5.8-5.7-8.3C495.7,83.2,489,80.4,481.2,80.4z"/>
<path class="st4" d="M603.7,157.9h-21.6c-4.5,0-8.7-0.9-12.6-2.6c-3.9-1.7-7.3-4-10.2-7c-2.9-3-5.2-6.4-6.9-10.3c-1.7-3.9-2.6-8.1-2.6-12.6
	V39.7l23.6-5.9v37.6h13.8l5.9,23.6h-19.7v30.5c0,2.5,0.9,4.6,2.6,6.3c1.7,1.7,3.7,2.6,6.1,2.6h15.7L603.7,157.9z"/>
<path class="st4" d="M673.3,56.8c7.2,0,13.9,1.3,20,4c6.1,2.7,11.4,6.4,15.8,11.1c4.5,4.7,7.9,10.2,10.4,16.5c2.5,6.3,3.7,13,3.7,20.3
	c0,7.1-1.2,13.8-3.7,20.1c-2.5,6.3-6,11.8-10.4,16.5c-4.5,4.7-9.7,8.4-15.8,11.1c-6.1,2.7-12.8,4-20,4c-8,0-15-1.5-21-4.5l8.5-21
	c3.1,1.3,6.7,2,10.6,2c3.8,0,7.4-0.7,10.8-2.1c3.4-1.4,6.5-3.4,9.2-6.2c5.5-5.5,8.3-12.1,8.3-19.9c0-7.9-2.8-14.6-8.3-20.1
	c-5.8-5.5-12.5-8.3-20.1-8.3c-7.9,0-14.6,2.8-20.1,8.3c-5.5,5.5-8.3,12.2-8.3,20.1V150v47.2h-23.6V59.4H643v7.9
	c3.8-3,8.2-5.5,13.2-7.5C661.2,57.8,666.9,56.8,673.3,56.8z"/>
<path class="st4" d="M742,20.2h23.6v23.6H742V20.2z M742,157.9V59.6h23.6v98.3H742z"/>
<path class="st4" d="M836.8,56.8c6.4,0,12.3,1.2,17.5,3.6c5.2,2.4,9.7,5.8,13.5,10c3.7,4.3,6.6,9.2,8.7,14.8c2,5.6,3,11.7,3,18.1v54.5h-23.6
	v-54.5c0-6.6-2.3-12-6.9-16.3c-4.5-4.5-9.8-6.7-16.1-6.7c-6.4,0-11.9,2.2-16.3,6.7c-4.5,4.5-6.7,9.9-6.7,16.3v54.5h-23.6V59.6h23.6
	V67c3.5-3,7.5-5.5,12-7.4C826.3,57.8,831.2,56.8,836.8,56.8z"/>
<path class="st4" d="M1000,148.1c0,7.1-1.3,13.8-4,20.1c-2.7,6.3-6.4,11.8-11.1,16.5c-4.7,4.7-10.2,8.5-16.5,11.2s-13,4.1-20.3,4.1
	c-5.9,0-11.5-0.9-16.7-2.8c-5.2-1.8-10.1-4.5-14.6-7.9l17.1-16.9c4.2,2.6,8.9,3.9,14.2,3.9c8,0,14.7-2.8,20.1-8.5
	c5.5-5.5,8.3-12.1,8.3-19.9v-39.5c0-7.6-2.8-14.3-8.3-20.1c-5.5-5.5-12.2-8.3-20.1-8.3c-7.6,0-14.3,2.8-20.1,8.3
	c-5.5,5.8-8.3,12.5-8.3,20.1c0,7.9,2.8,14.6,8.3,20.1c5.8,5.5,12.5,8.3,20.1,8.3c3.9,0,7.5-0.7,10.6-2l8.9,22
	c-5.9,2.4-12.3,3.5-19.1,3.5h-0.4c-7.1,0-13.8-1.3-20.1-4c-6.3-2.7-11.8-6.4-16.5-11.1c-4.7-4.7-8.5-10.2-11.2-16.5
	s-4.1-13-4.1-20.3c0-7.2,1.2-14,3.5-20.3c2.4-6.3,5.7-11.8,9.9-16.5c4.3-4.7,9.4-8.4,15.3-11.1c6-2.7,12.5-4,19.6-4
	c6.8,0,12.8,1,18.1,3c5.2,2,9.8,4.6,13.8,7.6v-7.7h23.6L1000,148.1L1000,148.1z"/>
</svg>
